<svg width="172" height="50" viewBox="0 0 172 50" fill="none" xmlns="http://www.w3.org/2000/svg">
<path d="M3.7125 14.6425C3.72364 14.6788 3.732 14.6955 3.732 14.7122C3.74733 15.3657 4.09706 15.806 4.63628 16.1236C5.071 16.38 5.54753 16.5249 6.03798 16.6127C7.14569 16.8106 8.26175 16.8649 9.38478 16.7799C9.49068 16.7716 9.59796 16.759 9.70386 16.7548C10.7168 16.7116 11.7214 16.5807 12.7246 16.4344C14.3437 16.1989 15.9446 15.877 17.5344 15.4911C19.5032 15.0118 21.4427 14.4321 23.3669 13.7968C24.7171 13.3509 26.0533 12.866 27.377 12.3491C27.4926 12.3045 27.6111 12.2641 27.7281 12.2265C27.7936 12.2056 27.8688 12.246 27.9023 12.3129C27.9176 12.3449 27.9385 12.3742 27.951 12.4076C28.4067 13.6602 28.8609 14.9128 29.3151 16.1655C29.3277 16.1989 29.3346 16.2337 29.3444 16.2672C29.3597 16.3229 29.3151 16.4176 29.2552 16.4441C29.1256 16.5026 28.9947 16.5584 28.8637 16.6127C27.7337 17.0892 26.5911 17.5309 25.4375 17.9475C23.0632 18.8044 20.6555 19.5554 18.2046 20.1588C16.9102 20.4778 15.6088 20.7607 14.2935 20.9753C13.5049 21.1034 12.7135 21.2163 11.9193 21.3055C10.6276 21.4504 9.33323 21.5242 8.03324 21.4755C7.09134 21.4392 6.15502 21.332 5.24517 21.0644C4.86897 20.9544 4.50531 20.8122 4.16115 20.6227C3.84765 20.45 3.56062 20.241 3.32097 19.9734C2.95452 19.5624 2.73855 19.0873 2.69815 18.5341C2.66052 18.0144 2.71626 17.5045 2.83609 17.0001C3.0214 16.2198 3.28613 15.4674 3.60382 14.7317C3.62054 14.6941 3.67209 14.6732 3.71389 14.6397L3.7125 14.6425Z" fill="#2A3990"/>
<path d="M2 24.219C2.07663 24.3152 2.11565 24.3514 2.14073 24.396C2.41243 24.8823 2.83182 25.2027 3.31671 25.4466C3.74725 25.6625 4.20426 25.8102 4.67521 25.9106C5.21444 26.0262 5.75784 26.1056 6.3096 26.1446C6.87808 26.185 7.44517 26.2282 8.01505 26.2129C8.88589 26.1892 9.75672 26.1446 10.6234 26.0513C10.9773 26.0137 11.3298 25.9733 11.6837 25.9342C12.8513 25.8075 14.0064 25.6096 15.1601 25.395C16.4531 25.154 17.7392 24.8795 19.0169 24.5674C20.6749 24.1619 22.3135 23.6882 23.9451 23.188C24.4383 23.0375 24.9274 22.8773 25.4193 22.724C25.5154 22.6933 25.6004 22.7324 25.6408 22.8187C25.6701 22.8828 25.7035 22.9469 25.7272 23.0138C26.2274 24.3821 26.7262 25.7517 27.2236 27.1214C27.2543 27.205 27.2808 27.29 27.3003 27.3764C27.3128 27.4335 27.2766 27.4822 27.2278 27.5045C27.0982 27.5617 26.9673 27.616 26.8321 27.6606C25.397 28.1302 23.9521 28.5718 22.4946 28.9703C20.9341 29.3981 19.3638 29.7785 17.7796 30.1031C16.892 30.2843 16.0017 30.4542 15.103 30.5796C14.4342 30.673 13.7668 30.7719 13.0966 30.8597C12.744 30.9057 12.3901 30.9447 12.0348 30.9642C10.987 31.0213 9.94064 31.1217 8.89007 31.0715C7.96628 31.0283 7.04389 30.9726 6.13543 30.7803C5.38442 30.6228 4.65431 30.4083 3.97297 30.0446C3.70545 29.9011 3.45186 29.7395 3.22057 29.5416C2.66741 29.0679 2.35948 28.4673 2.28563 27.7442C2.2299 27.1966 2.16859 26.6476 2.11147 26.1001C2.10032 25.9942 2.09614 25.8869 2.08778 25.781C2.05991 25.409 2.02926 25.0369 2.00418 24.6635C1.99582 24.5395 2.00418 24.4155 2.00418 24.219H2Z" fill="#29AAE2"/>
<path d="M4.07031 34.1327C4.11908 34.1522 4.15948 34.1563 4.18178 34.1772C4.62068 34.612 5.15294 34.8892 5.72699 35.0955C6.29826 35.3003 6.89043 35.4173 7.48818 35.5093C8.21132 35.6207 8.94004 35.643 9.66875 35.643C10.5396 35.643 11.409 35.6207 12.2799 35.5469C13.8752 35.4117 15.4567 35.186 17.0326 34.9074C18.5374 34.6412 20.031 34.3194 21.5191 33.971C21.5874 33.9543 21.6584 33.932 21.7281 33.9334C21.7755 33.9348 21.8382 33.9627 21.8633 34.0003C21.912 34.0727 21.9441 34.1591 21.9733 34.2413C22.422 35.4772 22.8706 36.7131 23.3179 37.949C23.3416 38.0159 23.3611 38.0842 23.3792 38.1524C23.3959 38.2151 23.3486 38.3141 23.2928 38.328C23.1033 38.3768 22.9138 38.4241 22.7244 38.4673C21.5289 38.7404 20.325 38.9703 19.117 39.1766C18.522 39.2783 17.9215 39.3535 17.3238 39.4357C16.8835 39.4956 16.4432 39.5555 16.0015 39.6029C15.5417 39.6517 15.0819 39.6991 14.6207 39.7241C13.3597 39.7896 12.0959 39.8231 10.835 39.7339C9.91259 39.6684 9.00134 39.5207 8.11518 39.2392C7.07853 38.909 6.24949 38.3029 5.59462 37.4446C5.23654 36.9751 4.94533 36.4679 4.7015 35.9329C4.45766 35.3992 4.25005 34.8516 4.08842 34.2859C4.07588 34.2399 4.08007 34.1898 4.07449 34.1327H4.07031Z" fill="#2A3990"/>
<path d="M9.92424 42.6989C9.98973 42.6641 10.0594 42.6557 10.1291 42.6808C10.2461 42.7226 10.3618 42.77 10.4774 42.8145C11.1615 43.0807 11.8749 43.22 12.6008 43.3106C13.5037 43.4234 14.4108 43.4346 15.3179 43.4067C16.0466 43.3844 16.7739 43.3273 17.4984 43.2437C17.8342 43.2047 18.1686 43.1629 18.5044 43.1253C19.6525 42.9929 20.7909 42.7909 21.9251 42.5735C23.1819 42.3324 24.4331 42.0635 25.6732 41.75C27.8621 41.1955 30.0246 40.5476 32.1675 39.837C32.3361 39.7812 32.5061 39.7297 32.6761 39.6809C32.7681 39.6544 32.8558 39.7018 32.8935 39.7882C32.9297 39.869 32.9659 39.9512 32.9966 40.0334C33.3017 40.868 33.6068 41.7027 33.9106 42.5387C33.9412 42.6223 33.9621 42.7086 33.9844 42.795C34.0012 42.8591 33.9566 42.9316 33.8855 42.9608C33.82 42.9887 33.7559 43.0194 33.6877 43.0417C31.6144 43.7383 29.5202 44.3625 27.3939 44.8781C26.3057 45.1414 25.212 45.3797 24.1098 45.5803C23.3059 45.7266 22.4991 45.8646 21.6854 45.9523C21.2089 46.0039 20.7338 46.0861 20.2559 46.1168C19.3335 46.1753 18.4097 46.2728 17.4845 46.2296C16.5969 46.1892 15.708 46.1474 14.8372 45.9426C14.4902 45.8618 14.1489 45.7698 13.8144 45.6444C13.3951 45.4856 13.0119 45.2696 12.6496 45.0049C12.0324 44.5506 11.4527 44.0518 10.8829 43.5419C10.5652 43.2576 10.2489 42.9706 9.93121 42.685L9.92285 42.6989H9.92424Z" fill="#29AAE2"/>
<path d="M8.71309 6.51392C8.67687 6.61424 8.63228 6.71177 8.60441 6.81349C8.5027 7.17575 8.61834 7.47671 8.88029 7.7317C9.03635 7.88357 9.22723 7.97971 9.42648 8.05774C9.70794 8.1692 10.0033 8.24445 10.3029 8.28067C11.0093 8.36567 11.7157 8.42001 12.4291 8.33919C12.8875 8.28764 13.3487 8.27231 13.8085 8.21519C14.6027 8.11486 15.3872 7.97414 16.1702 7.8139C17.232 7.59654 18.2798 7.32623 19.3192 7.02109C19.4209 6.99044 19.5226 6.95839 19.6257 6.93053C19.7706 6.89151 19.8487 6.9361 19.9142 7.08797C19.9281 7.12002 19.9434 7.15207 19.9559 7.18551C20.314 8.16921 20.6735 9.1529 21.0302 10.138C21.0539 10.2049 21.079 10.2759 21.079 10.3442C21.079 10.3888 21.0469 10.4571 21.0093 10.4752C20.8979 10.5281 20.778 10.5657 20.6596 10.6034C18.8998 11.1663 17.1121 11.6247 15.2952 11.9633C14.423 12.1263 13.5438 12.2461 12.6604 12.3395C11.738 12.4356 10.817 12.4426 9.89325 12.4273C9.32198 12.4175 8.76186 12.3325 8.20592 12.2057C7.87569 12.1305 7.55662 12.0204 7.25566 11.8671C7.03272 11.7543 6.82512 11.6163 6.65234 11.4338C6.38622 11.1523 6.23991 10.8221 6.23016 10.4278C6.22041 10.0432 6.31794 9.68934 6.47957 9.34797C6.64677 8.99406 6.8488 8.65827 7.08985 8.34895C7.53851 7.77489 7.99692 7.20919 8.45393 6.64211C8.48737 6.6017 8.52499 6.55711 8.57097 6.53621C8.61416 6.5167 8.67129 6.52785 8.72145 6.52646L8.71588 6.51531L8.71309 6.51392Z" fill="#2A3990"/>
<path d="M37.9081 33.5543C37.8454 33.4206 37.7924 33.3286 37.7562 33.2311C37.2992 31.9799 36.8435 30.7272 36.3907 29.4746C36.3601 29.391 36.3419 29.3046 36.3224 29.2183C36.3099 29.1597 36.3364 29.1082 36.3851 29.0831C36.5105 29.0176 36.6387 28.9563 36.7683 28.9006C38.0446 28.3614 39.3098 27.7943 40.5596 27.1965C42.6134 26.2142 44.6226 25.1511 46.5635 23.9584C47.0052 23.6867 47.0149 23.6881 47.1849 24.1577C47.5737 25.2263 47.9638 26.2936 48.3525 27.3623C48.3888 27.4627 48.4278 27.563 48.4487 27.6661C48.457 27.7107 48.4403 27.7817 48.4083 27.811C48.2898 27.9169 48.163 28.0158 48.0321 28.1078C46.9871 28.8476 45.903 29.5276 44.7939 30.1671C42.697 31.3752 40.5261 32.4327 38.3079 33.3969C38.1951 33.4457 38.0794 33.4888 37.9094 33.5571L37.9081 33.5543Z" fill="#2A3990"/>
<path d="M25.5896 37.7652C25.5366 37.7387 25.4906 37.7318 25.4767 37.7067C25.4321 37.6301 25.3945 37.5493 25.3652 37.4657C24.9082 36.2144 24.4512 34.9618 23.997 33.7092C23.9733 33.6423 23.9566 33.5727 23.9384 33.5044C23.9148 33.4138 23.9649 33.3274 24.0597 33.2996C24.6741 33.1212 25.2886 32.9443 25.9031 32.7645C28.5476 31.9884 31.1546 31.1009 33.7267 30.1144C33.8757 30.0573 34.0276 30.0099 34.1795 29.9611C34.238 29.9416 34.3397 29.9876 34.3634 30.0391C34.3996 30.12 34.4387 30.2008 34.4679 30.2844C34.918 31.5203 35.3666 32.7562 35.8139 33.9934C35.8445 34.077 35.8654 34.1634 35.8863 34.2484C35.9017 34.3083 35.8557 34.3961 35.7944 34.424C35.6982 34.4686 35.6021 34.5146 35.5018 34.5522C34.486 34.9298 33.4745 35.3199 32.4517 35.6808C30.3394 36.4276 28.1993 37.0839 26.0354 37.6607C25.8821 37.7011 25.7261 37.7332 25.5896 37.7652Z" fill="#29AAE2"/>
<path d="M27.626 22.0439C27.7388 21.9241 27.8796 21.8948 28.0119 21.8474C29.2994 21.3849 30.5771 20.9014 31.845 20.3886C33.1952 19.8424 34.5314 19.2628 35.8536 18.6511C35.9177 18.6219 35.9818 18.5898 36.0459 18.5606C36.4542 18.3738 36.4695 18.3599 36.6381 18.8239C37.0185 19.8759 37.4044 20.9264 37.7876 21.977C37.8796 22.2278 37.9701 22.4772 38.0593 22.728C38.0774 22.7782 38.0914 22.8297 38.1053 22.8799C38.1206 22.9384 38.0844 23.0388 38.0314 23.0666C37.874 23.1488 37.7165 23.231 37.5577 23.3091C35.3855 24.3708 33.1687 25.3252 30.9115 26.1905C30.4809 26.3563 30.0476 26.5179 29.6157 26.6782C29.5502 26.7018 29.4777 26.7116 29.4081 26.7158C29.3774 26.7172 29.33 26.6991 29.3175 26.6754C29.2645 26.5834 29.2158 26.4901 29.1795 26.3911C28.8605 25.5245 28.5456 24.6564 28.2293 23.7898C28.0593 23.323 27.8837 22.8576 27.7179 22.3895C27.6775 22.2752 27.6246 22.1596 27.6274 22.0411L27.626 22.0439Z" fill="#2A3990"/>
<path d="M47.9237 16.4944C47.8359 16.6783 47.6882 16.7828 47.5586 16.904C46.9219 17.499 46.2461 18.0493 45.5494 18.5718C43.8969 19.8119 42.1385 20.8862 40.3328 21.8852C40.2715 21.92 40.2046 21.9451 40.1391 21.973C40.0987 21.9911 40.0221 21.959 40.0039 21.9158C39.9621 21.8183 39.9176 21.7208 39.8813 21.6218C39.4187 20.3539 38.9562 19.086 38.495 17.8166C38.4643 17.733 38.4378 17.648 38.4114 17.5631C38.3891 17.492 38.4141 17.4126 38.4741 17.3777C38.5981 17.3067 38.7221 17.2384 38.8475 17.1701C39.5497 16.787 40.2561 16.4122 40.9514 16.0192C42.2054 15.31 43.426 14.5479 44.5936 13.7035C45.0827 13.3496 45.555 12.9706 46.0357 12.6042C46.1346 12.5289 46.2336 12.4537 46.3367 12.3854C46.3548 12.3743 46.4105 12.391 46.4259 12.4119C46.4677 12.469 46.5053 12.5303 46.529 12.5972C46.979 13.8317 47.4263 15.0676 47.8735 16.3035C47.8972 16.369 47.9098 16.4386 47.9251 16.4916L47.9237 16.4944Z" fill="#29AAE2"/>
<path d="M31.3875 15.4926C31.2816 15.4341 31.2482 15.3533 31.2175 15.2683C30.9876 14.6343 30.7549 14.0003 30.5236 13.365C30.3174 12.7979 30.1112 12.2294 29.9064 11.6609C29.8827 11.594 29.852 11.5271 29.8479 11.4575C29.8451 11.4115 29.8715 11.3404 29.9064 11.3209C30.061 11.2345 30.2227 11.1593 30.3843 11.0882C31.8153 10.4529 33.2197 9.76736 34.5936 9.01913C35.8434 8.33779 37.0612 7.60489 38.2288 6.78839C38.3152 6.72709 38.4071 6.67135 38.5005 6.6198C38.527 6.60587 38.5688 6.61701 38.6175 6.61701C38.6593 6.70758 38.7123 6.80093 38.7485 6.89986C39.1623 8.03543 39.5748 9.17101 39.9872 10.3066C39.9997 10.34 40.0123 10.3735 40.0206 10.4069C40.0387 10.4807 40.0276 10.5546 39.9705 10.602C39.8479 10.7037 39.7197 10.8012 39.5901 10.8946C38.4894 11.6804 37.3426 12.3938 36.1681 13.064C34.7162 13.893 33.2281 14.651 31.7121 15.3574C31.6021 15.409 31.4864 15.4508 31.3889 15.4912L31.3875 15.4926Z" fill="#2A3990"/>
<path d="M23.1978 9.72142C23.0863 9.67265 23.0487 9.59183 23.018 9.50963C22.9191 9.2435 22.823 8.97598 22.7268 8.70985C22.4788 8.02572 22.228 7.34298 21.9814 6.65885C21.9396 6.54321 21.9076 6.42338 21.8797 6.30216C21.8741 6.27569 21.8992 6.22553 21.9229 6.21299C22.033 6.15725 22.1444 6.10431 22.2601 6.0625C23.078 5.76712 23.8889 5.45362 24.6915 5.11782C26.2659 4.46016 27.8014 3.72309 29.2755 2.8634C29.3675 2.81045 29.4636 2.76308 29.5584 2.7157C29.6044 2.69201 29.6712 2.7157 29.6963 2.7575C29.713 2.78816 29.7381 2.81602 29.7493 2.84946C30.1088 3.83316 30.4682 4.81547 30.8277 5.79916C30.8333 5.81588 30.8361 5.834 30.8403 5.85072C30.8598 5.92317 30.8403 6.00398 30.7817 6.043C30.634 6.14193 30.4877 6.24085 30.3359 6.33142C28.8715 7.20783 27.3527 7.98113 25.7908 8.66805C25.076 8.98295 24.3487 9.26858 23.6269 9.56397C23.4806 9.62388 23.3288 9.67404 23.1964 9.72142H23.1978Z" fill="#29AAE2"/>
<path d="M43.8181 38.5912C43.7958 38.6343 43.7888 38.6775 43.7637 38.6943C43.662 38.7639 43.5575 38.8322 43.4474 38.8893C42.5641 39.3505 41.6723 39.7894 40.768 40.2074C39.3468 40.8637 37.9075 41.4726 36.4445 42.0285C36.3289 42.0731 36.209 42.1066 36.0892 42.1358C36.0641 42.1414 36.0251 42.1121 36 42.0898C35.975 42.0661 35.9527 42.0355 35.9415 42.0034C35.5876 41.0351 35.2351 40.0667 34.8826 39.0983C34.877 39.0816 34.8756 39.0635 34.87 39.0468C34.8547 38.9924 34.9035 38.8977 34.9634 38.8726C35.0456 38.8378 35.1278 38.8029 35.21 38.7723C37.6623 37.8638 40.0714 36.8564 42.4303 35.7278C42.4944 35.6972 42.5613 35.6721 42.6268 35.647C42.67 35.6303 42.7466 35.6582 42.7661 35.6986C42.7967 35.7627 42.8288 35.8254 42.8539 35.8923C43.1548 36.7088 43.4544 37.5266 43.7526 38.3445C43.7832 38.4267 43.7986 38.5159 43.8181 38.5912Z" fill="#2A3990"/>
<path d="M17.2316 0.0013947C17.2302 0.0919618 17.2149 0.172776 17.1313 0.23269C16.9293 0.376204 16.7286 0.522504 16.5322 0.674378C16.3914 0.783059 16.2674 0.912638 16.1769 1.0673C16.142 1.12721 16.1183 1.19549 16.0988 1.26376C16.0612 1.40031 16.1351 1.56333 16.2577 1.62882C16.4165 1.71381 16.5837 1.76954 16.7648 1.77651C17.1201 1.79044 17.4727 1.78905 17.8266 1.73192C18.8646 1.56612 19.8678 1.27351 20.8473 0.898706C20.9797 0.848546 21.1093 0.788631 21.2416 0.738471C21.4451 0.661837 21.5301 0.695277 21.6067 0.905671C21.8268 1.50481 22.04 2.10673 22.256 2.70726C22.2769 2.76717 22.2379 2.8661 22.1863 2.89118C22.0902 2.93855 21.9954 2.98453 21.8979 3.02634C20.2635 3.73137 18.5734 4.25805 16.8234 4.59245C16.2298 4.70531 15.6279 4.75547 15.0273 4.80842C14.5815 4.84743 14.1412 4.78752 13.7023 4.71646C13.4738 4.67884 13.2564 4.59524 13.0613 4.46844C12.837 4.32214 12.7186 4.11732 12.7228 3.84423C12.7255 3.64498 12.7618 3.45688 12.8607 3.28271C12.975 3.08068 13.1115 2.89536 13.2648 2.72259C13.549 2.40212 13.8709 2.12485 14.2081 1.8629C14.9967 1.25122 15.8564 0.753798 16.7425 0.299569C16.8693 0.235476 16.9989 0.176954 17.1215 0.10868C17.1647 0.0849936 17.194 0.0362268 17.2316 0V0.0013947Z" fill="#29AAE2"/>
<path d="M40.9107 45.1429C40.8856 45.193 40.8772 45.2376 40.8522 45.2515C40.7142 45.331 40.5763 45.4104 40.4328 45.4787C39.2735 46.0179 38.0947 46.5097 36.8992 46.9584C35.6369 47.4321 34.3578 47.8585 33.0592 48.2249C32.9589 48.2528 32.853 48.2653 32.7485 48.2765C32.7192 48.2793 32.6858 48.25 32.6579 48.2305C32.644 48.2221 32.6315 48.2054 32.6259 48.1901C32.4252 47.6411 32.2246 47.0908 32.0253 46.5404C32.0017 46.4735 32.0421 46.3969 32.1131 46.3704C32.1953 46.3397 32.2789 46.3091 32.3639 46.284C34.1474 45.7434 35.9156 45.1596 37.6544 44.4894C38.4152 44.1954 39.1704 43.8861 39.9284 43.5837C40.0273 43.5447 40.1262 43.5085 40.2293 43.4806C40.2558 43.4736 40.3018 43.4945 40.3213 43.5182C40.3547 43.5572 40.3812 43.606 40.3993 43.6548C40.5596 44.0867 40.7198 44.52 40.8758 44.9534C40.8995 45.0189 40.9023 45.0899 40.9121 45.1429H40.9107Z" fill="#2A3990"/>
<path d="M18.6801 48.261C18.7456 48.2025 18.8153 48.2262 18.8766 48.2374C19.5969 48.3697 20.3256 48.3614 21.053 48.3628C21.248 48.3628 21.4431 48.3502 21.6382 48.346C22.4031 48.3293 23.1597 48.2401 23.9177 48.1454C25.8043 47.9085 27.6616 47.5254 29.5064 47.0725C29.6095 47.0474 29.7154 47.0335 29.8213 47.0168C29.8826 47.007 29.9634 47.06 29.9898 47.1199C29.9968 47.1366 30.0038 47.1519 30.0094 47.1687C30.1807 47.6354 30.3535 48.1008 30.5221 48.5676C30.5402 48.6163 30.5444 48.6707 30.5555 48.7236C30.5681 48.7808 30.5096 48.8658 30.4455 48.8853C30.412 48.895 30.3772 48.9062 30.3438 48.9145C29.4924 49.0915 28.6397 49.2545 27.7772 49.3729C26.9496 49.4872 26.1205 49.5666 25.2859 49.5973C24.592 49.6223 23.9009 49.6042 23.2099 49.5569C22.7849 49.5276 22.3627 49.4635 21.9517 49.3451C21.2536 49.143 20.5528 48.9438 19.8589 48.7292C19.5036 48.6191 19.158 48.4784 18.8097 48.3474C18.7623 48.3293 18.7247 48.2917 18.6787 48.2597L18.6801 48.261Z" fill="#2A3990"/>
<path d="M42.488 45.834C42.4629 45.8772 42.4476 45.9343 42.4099 45.9622C42.2664 46.0653 42.1173 46.1642 41.9669 46.2562C39.9117 47.5213 37.72 48.4758 35.4001 49.1362C34.2882 49.4525 33.1582 49.6838 32.017 49.8621C31.7188 49.9081 31.4179 49.9429 31.1183 49.9764C30.9776 49.9917 30.8355 49.9917 30.6836 50.0001C30.6836 49.9234 30.7365 49.9332 30.7714 49.9262C34.3007 49.27 37.6823 48.1581 40.9232 46.617C41.3399 46.4192 41.7453 46.1949 42.1578 45.9886C42.2678 45.9329 42.3849 45.8925 42.5005 45.8465L42.488 45.8354V45.834Z" fill="#2A3990"/>
<path d="M76.0439 29.3281C76.0439 31.1647 75.0833 32.5273 73.1621 33.416C71.901 33.8646 70.5215 34.0889 69.0234 34.0889C66.7129 34.0889 64.8636 33.3779 63.4756 31.9561C62.096 30.5342 61.3555 28.5579 61.2539 26.0273V24.4912C61.2539 22.7477 61.5586 21.2243 62.168 19.9209C62.7858 18.6175 63.666 17.6146 64.8086 16.9121C65.9512 16.2096 67.2757 15.8584 68.7822 15.8584C70.9743 15.8584 72.6797 16.3662 73.8984 17.3818C74.7786 18.2367 75.0241 19.2057 74.6348 20.2891C74.2454 21.3639 73.4583 21.9014 72.2734 21.9014H72.0449C72.0111 21.9014 71.9814 21.8929 71.9561 21.876C71.9307 21.8506 71.918 21.8167 71.918 21.7744C71.7572 20.8519 71.4482 20.1875 70.9912 19.7812C70.6442 19.485 70.2041 19.2946 69.6709 19.21C68.3421 19.0153 67.2799 19.43 66.4844 20.4541C65.8835 21.3682 65.5788 22.6885 65.5703 24.415V25.4814C65.5703 27.2503 65.8708 28.5791 66.4717 29.4678C67.0726 30.3564 68.0205 30.8008 69.3154 30.8008C70.4242 30.8008 71.2493 30.5553 71.791 30.0645V27.3096H68.8203V24.377H72.8701C73.7503 24.377 74.4993 24.6859 75.1172 25.3037C75.735 25.9215 76.0439 26.6706 76.0439 27.5508V29.3281ZM77.0723 33.9492C76.9368 33.9492 76.8184 33.8984 76.7168 33.7969C76.6152 33.6953 76.5645 33.5726 76.5645 33.4287V19.4004C76.5645 18.3763 76.9157 17.5003 77.6182 16.7725C78.3206 16.0446 79.167 15.6807 80.1572 15.6807C80.335 15.6807 80.4873 15.7484 80.6143 15.8838C80.7497 16.0192 80.8174 16.18 80.8174 16.3662V30.0771C80.8174 31.152 80.4492 32.0661 79.7129 32.8193C78.985 33.5726 78.1048 33.9492 77.0723 33.9492ZM91.5449 30.6484H85.7178C84.7868 32.9167 83.2972 34.0508 81.249 34.0508H80.1445L85.248 19.7305C86.4329 17.1491 88.2272 15.8584 90.6309 15.8584L95.5693 29.6328C95.9163 30.7585 95.7809 31.7783 95.1631 32.6924C94.5452 33.598 93.682 34.0508 92.5732 34.0508L91.5449 30.6484ZM86.7334 27.0049H90.5293L88.625 20.6953L86.7334 27.0049ZM117.799 19.3242H113.013C112.945 19.3242 112.886 19.3496 112.835 19.4004C112.784 19.4512 112.759 19.5146 112.759 19.5908V29.9502C112.759 31.0843 112.369 32.0534 111.591 32.8574C110.812 33.653 109.868 34.0508 108.76 34.0508C108.692 34.0508 108.633 34.0254 108.582 33.9746C108.531 33.9238 108.506 33.8604 108.506 33.7842V19.5908C108.506 19.5146 108.48 19.4512 108.43 19.4004C108.379 19.3496 108.315 19.3242 108.239 19.3242H106.322C105.493 19.3242 104.782 19.0238 104.189 18.4229C103.597 17.8135 103.301 17.0771 103.301 16.2139C103.301 16.1462 103.326 16.0869 103.377 16.0361C103.428 15.9769 103.487 15.9473 103.555 15.9473H115.031C115.869 15.9473 116.58 16.252 117.164 16.8613C117.757 17.4707 118.053 18.2028 118.053 19.0576C118.053 19.1338 118.027 19.1973 117.977 19.248C117.926 19.2988 117.867 19.3242 117.799 19.3242ZM124.819 27.665H122.509V33.835C122.509 33.9196 122.479 33.9915 122.42 34.0508C122.369 34.11 122.306 34.1396 122.229 34.1396C121.129 34.1396 120.19 33.7376 119.411 32.9336C118.641 32.1296 118.256 31.1562 118.256 30.0137V15.833H125.2C127.299 15.833 128.937 16.3154 130.113 17.2803C131.298 18.2451 131.891 19.6035 131.891 21.3555C131.891 22.6335 131.641 23.6914 131.142 24.5293C130.642 25.3587 129.864 26.0358 128.806 26.5605L132.487 33.9492V34.1396H129.136C128.399 34.1396 127.82 33.763 127.396 33.0098L124.819 27.665ZM122.509 24.2627H125.2C126.013 24.2627 126.622 24.0426 127.028 23.6025C127.435 23.1624 127.638 22.5488 127.638 21.7617C127.638 20.9746 127.435 20.3568 127.028 19.9082C126.614 19.4512 126.004 19.2227 125.2 19.2227H122.509V24.2627ZM133.084 33.9492C132.949 33.9492 132.83 33.8984 132.729 33.7969C132.627 33.6953 132.576 33.5726 132.576 33.4287V19.4004C132.576 18.3763 132.927 17.5003 133.63 16.7725C134.332 16.0446 135.179 15.6807 136.169 15.6807C136.347 15.6807 136.499 15.7484 136.626 15.8838C136.761 16.0192 136.829 16.18 136.829 16.3662V30.0771C136.829 31.152 136.461 32.0661 135.725 32.8193C134.997 33.5726 134.117 33.9492 133.084 33.9492ZM151.81 33.9492C149.981 33.9492 148.509 33.069 147.392 31.3086L144.205 25.5449C144.044 25.291 143.837 25.1471 143.583 25.1133C143.338 25.0794 143.109 25.1429 142.897 25.3037C142.694 25.4561 142.593 25.6846 142.593 25.9893V30.3438C142.593 31.334 142.25 32.1846 141.564 32.8955C140.879 33.598 140.054 33.9492 139.089 33.9492C138.877 33.9492 138.7 33.8773 138.556 33.7334C138.412 33.5811 138.34 33.3949 138.34 33.1748V16.7471C138.34 16.4847 138.429 16.2562 138.606 16.0615C138.793 15.8669 139.017 15.7695 139.279 15.7695H139.66C141.471 15.7695 142.931 16.6455 144.04 18.3975L148.077 25.71C148.153 25.8285 148.251 25.8962 148.369 25.9131C148.488 25.93 148.593 25.9004 148.687 25.8242C148.788 25.748 148.839 25.638 148.839 25.4941V19.667C148.839 18.5921 149.207 17.6738 149.943 16.9121C150.68 16.1504 151.573 15.7695 152.622 15.7695C152.749 15.7695 152.855 15.8161 152.939 15.9092C153.033 16.0023 153.079 16.1165 153.079 16.252V32.6416C153.079 32.9971 152.952 33.306 152.698 33.5684C152.453 33.8223 152.157 33.9492 151.81 33.9492ZM164.759 33.9492V27.957C164.759 27.5254 164.611 27.1572 164.314 26.8525C164.018 26.5479 163.663 26.3955 163.248 26.3955H158.487V29.5947C158.487 30.7965 158.073 31.8249 157.243 32.6797C156.414 33.526 155.411 33.9492 154.234 33.9492V20.2256C154.234 19.0238 154.649 17.9954 155.479 17.1406C156.308 16.2858 157.311 15.8584 158.487 15.8584V23.0439H164.759V20.2002C164.759 19.0068 165.169 17.987 165.99 17.1406C166.82 16.2858 167.818 15.8584 168.986 15.8584V29.6201C168.986 30.8135 168.572 31.8333 167.742 32.6797C166.921 33.526 165.927 33.9492 164.759 33.9492Z" fill="#FF2441"/>
</svg>
