<svg width="172" height="50" viewBox="0 0 172 50" fill="none" xmlns="http://www.w3.org/2000/svg">
<rect width="50" height="50" rx="24" fill="white"/>
<path d="M28 0H22C9.84974 0 0 9.84974 0 22V28C0 40.1503 9.84974 50 22 50H28C40.1503 50 50 40.1503 50 28V22C50 9.84974 40.1503 0 28 0Z" fill="#2A3990"/>
<path d="M6.47431 16.7141C6.48391 16.7431 6.49111 16.7565 6.49111 16.7699C6.50431 17.2926 6.80547 17.6449 7.26981 17.899C7.64416 18.1041 8.05451 18.22 8.47685 18.2903C9.43073 18.4486 10.3918 18.492 11.3589 18.424C11.4501 18.4173 11.5424 18.4073 11.6336 18.404C12.5059 18.3694 13.371 18.2646 14.2349 18.1476C15.6291 17.9592 17.0077 17.7017 18.3767 17.393C20.0721 17.0095 21.7423 16.5458 23.3993 16.0375C24.5619 15.6808 25.7126 15.2929 26.8524 14.8794C26.952 14.8437 27.054 14.8114 27.1548 14.7813C27.2112 14.7646 27.276 14.7969 27.3048 14.8504C27.318 14.876 27.336 14.8994 27.3468 14.9262C27.7391 15.9283 28.1303 16.9304 28.5214 17.9325C28.5322 17.9592 28.5382 17.9871 28.5466 18.0138C28.5598 18.0584 28.5214 18.1342 28.4698 18.1554C28.3582 18.2022 28.2455 18.2468 28.1327 18.2903C27.1596 18.6715 26.1757 19.0248 25.1823 19.3581C23.1377 20.0437 21.0644 20.6445 18.9539 21.1271C17.8392 21.3824 16.7186 21.6087 15.5859 21.7803C14.9068 21.8829 14.2253 21.9732 13.5414 22.0445C12.4291 22.1604 11.3145 22.2195 10.195 22.1805C9.38393 22.1515 8.57764 22.0657 7.79414 21.8517C7.47018 21.7636 7.15702 21.6499 6.86066 21.4983C6.5907 21.3601 6.34353 21.1929 6.13716 20.9789C5.8216 20.65 5.63562 20.2699 5.60083 19.8274C5.56843 19.4116 5.61643 19.0037 5.71961 18.6002C5.87919 17.9759 6.10716 17.374 6.38073 16.7855C6.39512 16.7554 6.43952 16.7386 6.47551 16.7119L6.47431 16.7141Z" fill="#FCFCFC"/>
<path d="M5 24.3752C5.06599 24.4521 5.09959 24.4811 5.12118 24.5168C5.35515 24.9058 5.71631 25.1622 6.13385 25.3573C6.5046 25.53 6.89815 25.6482 7.3037 25.7284C7.76804 25.821 8.23597 25.8845 8.71111 25.9157C9.20065 25.948 9.68898 25.9826 10.1797 25.9703C10.9296 25.9514 11.6795 25.9157 12.4258 25.841C12.7306 25.8109 13.0341 25.7786 13.3389 25.7474C14.3444 25.646 15.339 25.4877 16.3325 25.316C17.446 25.1232 18.5534 24.9036 19.6537 24.6539C21.0815 24.3295 22.4925 23.9505 23.8975 23.5504C24.3223 23.43 24.7434 23.3018 25.167 23.1792C25.2497 23.1547 25.3229 23.1859 25.3577 23.255C25.3829 23.3063 25.4117 23.3575 25.4321 23.411C25.8629 24.5057 26.2924 25.6014 26.7207 26.6971C26.7471 26.764 26.7699 26.832 26.7867 26.9011C26.7975 26.9468 26.7663 26.9858 26.7243 27.0036C26.6128 27.0493 26.5 27.0928 26.3836 27.1285C25.1478 27.5041 23.9035 27.8575 22.6485 28.1763C21.3047 28.5185 19.9524 28.8228 18.5882 29.0825C17.8239 29.2274 17.0572 29.3634 16.2833 29.4637C15.7074 29.5384 15.1327 29.6175 14.5555 29.6878C14.252 29.7246 13.9472 29.7558 13.6413 29.7714C12.739 29.8171 11.8379 29.8973 10.9332 29.8572C10.1377 29.8226 9.34343 29.7781 8.56113 29.6242C7.91442 29.4983 7.2857 29.3266 6.69898 29.0357C6.46861 28.9209 6.25024 28.7916 6.05106 28.6333C5.57472 28.2543 5.30956 27.7739 5.24597 27.1954C5.19797 26.7573 5.14518 26.3181 5.09599 25.88C5.08639 25.7953 5.08279 25.7095 5.07559 25.6248C5.05159 25.3272 5.0252 25.0296 5.0036 24.7308C4.9964 24.6316 5.0036 24.5324 5.0036 24.3752H5Z" fill="#29AAE2"/>
<path d="M6.78223 32.3061C6.82422 32.3217 6.85902 32.325 6.87821 32.3417C7.25616 32.6895 7.7145 32.9113 8.20884 33.0763C8.70077 33.2402 9.21071 33.3338 9.72544 33.4074C10.3482 33.4965 10.9757 33.5144 11.6032 33.5144C12.3531 33.5144 13.1018 33.4965 13.8517 33.4374C15.2255 33.3293 16.5873 33.1487 17.9444 32.9258C19.2402 32.7129 20.5264 32.4554 21.8079 32.1768C21.8666 32.1634 21.9278 32.1455 21.9878 32.1467C22.0286 32.1478 22.0826 32.1701 22.1042 32.2002C22.1462 32.2581 22.1738 32.3272 22.199 32.393C22.5854 33.3817 22.9717 34.3704 23.3569 35.3591C23.3772 35.4127 23.394 35.4673 23.4096 35.5219C23.424 35.572 23.3832 35.6512 23.3353 35.6623C23.1721 35.7014 23.0089 35.7393 22.8457 35.7738C21.8163 35.9923 20.7796 36.1762 19.7393 36.3412C19.227 36.4225 18.7099 36.4827 18.1951 36.5485C17.816 36.5964 17.4368 36.6444 17.0565 36.6823C16.6605 36.7213 16.2646 36.7592 15.8674 36.7792C14.7816 36.8316 13.6933 36.8584 12.6075 36.787C11.8132 36.7347 11.0285 36.6165 10.2654 36.3913C9.37269 36.1272 8.65878 35.6423 8.09485 34.9556C7.78649 34.58 7.53573 34.1742 7.32576 33.7462C7.11578 33.3193 6.93701 32.8812 6.79782 32.4287C6.78702 32.3919 6.79063 32.3518 6.78583 32.3061H6.78223Z" fill="#FCFCFC"/>
<path d="M11.8235 39.1593C11.8799 39.1314 11.9398 39.1247 11.9998 39.1448C12.1006 39.1782 12.2002 39.2161 12.2998 39.2518C12.8889 39.4647 13.5032 39.5761 14.1284 39.6486C14.9059 39.7389 15.687 39.7478 16.4681 39.7255C17.0956 39.7077 17.7219 39.662 18.3458 39.5951C18.635 39.5639 18.9229 39.5304 19.2121 39.5004C20.2008 39.3945 21.181 39.2328 22.1577 39.0589C23.24 38.8661 24.3174 38.651 25.3853 38.4002C27.2702 37.9565 29.1324 37.4382 30.9777 36.8697C31.1229 36.8251 31.2693 36.7839 31.4157 36.7449C31.4949 36.7237 31.5705 36.7616 31.6029 36.8307C31.6341 36.8954 31.6653 36.9611 31.6917 37.0269C31.9544 37.6946 32.2172 38.3623 32.4788 39.0311C32.5052 39.098 32.5231 39.1671 32.5423 39.2362C32.5567 39.2875 32.5183 39.3454 32.4572 39.3688C32.4008 39.3911 32.3456 39.4156 32.2868 39.4335C30.5014 39.9908 28.698 40.4902 26.8671 40.9026C25.93 41.1133 24.9881 41.3039 24.0391 41.4644C23.3468 41.5814 22.652 41.6918 21.9513 41.762C21.541 41.8033 21.1318 41.869 20.7203 41.8936C19.926 41.9404 19.1305 42.0184 18.3338 41.9838C17.5695 41.9515 16.804 41.9181 16.0541 41.7542C15.7553 41.6896 15.4614 41.616 15.1734 41.5157C14.8123 41.3886 14.4823 41.2158 14.1704 41.004C13.6388 40.6407 13.1397 40.2416 12.649 39.8336C12.3754 39.6062 12.103 39.3766 11.8295 39.1481L11.8223 39.1593H11.8235Z" fill="#29AAE2"/>
<path d="M10.7813 10.2112C10.7501 10.2914 10.7117 10.3695 10.6877 10.4508C10.6001 10.7407 10.6997 10.9814 10.9253 11.1854C11.0596 11.3069 11.224 11.3838 11.3956 11.4462C11.638 11.5354 11.8923 11.5956 12.1503 11.6246C12.7586 11.6926 13.3669 11.7361 13.9813 11.6714C14.376 11.6302 14.7731 11.6179 15.1691 11.5722C15.853 11.4919 16.5285 11.3794 17.2028 11.2512C18.1171 11.0773 19.0194 10.861 19.9145 10.6169C20.0021 10.5924 20.0896 10.5668 20.1784 10.5445C20.3032 10.5133 20.3704 10.5489 20.4268 10.6704C20.4388 10.6961 20.452 10.7217 20.4628 10.7485C20.7712 11.5354 21.0807 12.3224 21.3879 13.1104C21.4083 13.164 21.4299 13.2208 21.4299 13.2754C21.4299 13.3111 21.4023 13.3657 21.3699 13.3802C21.2739 13.4226 21.1707 13.4527 21.0687 13.4827C19.5533 13.9331 18.0139 14.2998 16.4493 14.5707C15.6982 14.7011 14.9411 14.797 14.1804 14.8716C13.3861 14.9485 12.593 14.9541 11.7975 14.9419C11.3056 14.9341 10.8233 14.8661 10.3445 14.7646C10.0602 14.7044 9.7854 14.6164 9.52624 14.4938C9.33426 14.4035 9.15549 14.2931 9.00671 14.1471C8.77754 13.9219 8.65155 13.6578 8.64315 13.3423C8.63476 13.0347 8.71874 12.7515 8.85793 12.4784C9.00191 12.1953 9.17588 11.9267 9.38346 11.6792C9.76981 11.22 10.1646 10.7674 10.5581 10.3137C10.5869 10.2814 10.6193 10.2457 10.6589 10.229C10.6961 10.2134 10.7453 10.2223 10.7885 10.2212L10.7837 10.2123L10.7813 10.2112Z" fill="#FCFCFC"/>
<path d="M35.9218 31.8436C35.8678 31.7366 35.8222 31.663 35.791 31.585C35.3975 30.584 35.0051 29.5819 34.6152 28.5798C34.5888 28.5129 34.5732 28.4438 34.5564 28.3747C34.5456 28.3279 34.5684 28.2867 34.6104 28.2666C34.7184 28.2142 34.8287 28.1652 34.9403 28.1206C36.0394 27.6892 37.1288 27.2355 38.2051 26.7573C39.9737 25.9715 41.7038 25.121 43.3752 24.1668C43.7556 23.9495 43.764 23.9506 43.9103 24.3262C44.2451 25.1812 44.5811 26.035 44.9158 26.89C44.947 26.9702 44.9806 27.0505 44.9986 27.133C45.0058 27.1686 44.9914 27.2255 44.9638 27.2489C44.8618 27.3336 44.7526 27.4128 44.6399 27.4863C43.74 28.0782 42.8065 28.6222 41.8514 29.1338C40.0457 30.1002 38.1763 30.9463 36.2662 31.7176C36.169 31.7566 36.0694 31.7912 35.923 31.8458L35.9218 31.8436Z" fill="#FCFCFC"/>
<path d="M25.3135 35.2122C25.268 35.191 25.2284 35.1854 25.2164 35.1653C25.178 35.104 25.1456 35.0394 25.1204 34.9725C24.7268 33.9715 24.3333 32.9694 23.9421 31.9673C23.9217 31.9138 23.9073 31.8581 23.8917 31.8035C23.8713 31.731 23.9145 31.6619 23.9961 31.6396C24.5253 31.497 25.0544 31.3554 25.5835 31.2116C27.8608 30.5907 30.1057 29.8807 32.3206 29.0915C32.449 29.0458 32.5798 29.0079 32.7106 28.9689C32.761 28.9533 32.8486 28.9901 32.869 29.0313C32.9002 29.0959 32.9337 29.1606 32.9589 29.2275C33.3465 30.2162 33.7328 31.2049 34.118 32.1947C34.1444 32.2616 34.1624 32.3307 34.1804 32.3987C34.1936 32.4467 34.154 32.5169 34.1012 32.5392C34.0184 32.5748 33.9356 32.6116 33.8492 32.6417C32.9745 32.9438 32.1035 33.2559 31.2228 33.5446C29.4038 34.1421 27.5609 34.6671 25.6975 35.1286C25.5655 35.1609 25.4311 35.1865 25.3135 35.2122Z" fill="#29AAE2"/>
<path d="M27.0674 22.6353C27.1646 22.5394 27.2858 22.516 27.3997 22.4781C28.5084 22.1081 29.6086 21.7213 30.7005 21.3111C31.8632 20.8741 33.0138 20.4104 34.1525 19.9211C34.2076 19.8977 34.2628 19.872 34.318 19.8486C34.6696 19.6992 34.6828 19.6881 34.828 20.0593C35.1555 20.9009 35.4879 21.7413 35.8178 22.5818C35.897 22.7824 35.975 22.982 36.0518 23.1826C36.0674 23.2227 36.0794 23.264 36.0914 23.3041C36.1046 23.3509 36.0734 23.4312 36.0278 23.4535C35.8922 23.5192 35.7566 23.585 35.6199 23.6474C33.7493 24.4968 31.8404 25.2604 29.8966 25.9526C29.5259 26.0852 29.1527 26.2145 28.7808 26.3427C28.7244 26.3617 28.662 26.3695 28.602 26.3728C28.5756 26.3739 28.5348 26.3594 28.524 26.3405C28.4784 26.2669 28.4364 26.1922 28.4052 26.1131C28.1304 25.4198 27.8593 24.7253 27.5869 24.032C27.4405 23.6586 27.2894 23.2863 27.1466 22.9117C27.1118 22.8203 27.0662 22.7278 27.0686 22.6331L27.0674 22.6353Z" fill="#FCFCFC"/>
<path d="M44.5459 18.1954C44.4703 18.3426 44.3431 18.4262 44.2315 18.5231C43.6832 18.9991 43.1013 19.4394 42.5014 19.8574C41.0784 20.8495 39.5642 21.7089 38.0092 22.5081C37.9564 22.536 37.8988 22.556 37.8424 22.5783C37.8076 22.5928 37.7416 22.5672 37.726 22.5326C37.69 22.4546 37.6516 22.3766 37.6204 22.2974C37.2221 21.2831 36.8237 20.2687 36.4266 19.2532C36.4002 19.1864 36.3774 19.1184 36.3546 19.0504C36.3354 18.9935 36.357 18.93 36.4086 18.9021C36.5154 18.8453 36.6221 18.7907 36.7301 18.736C37.3349 18.4295 37.9432 18.1297 38.5419 17.8153C39.6218 17.2479 40.6728 16.6382 41.6783 15.9627C42.0994 15.6796 42.5062 15.3764 42.9201 15.0833C43.0053 15.0231 43.0905 14.9629 43.1793 14.9082C43.1949 14.8993 43.2429 14.9127 43.2561 14.9294C43.2921 14.9751 43.3245 15.0242 43.3449 15.0777C43.7324 16.0653 44.1176 17.054 44.5027 18.0427C44.5231 18.0951 44.5339 18.1508 44.5471 18.1932L44.5459 18.1954Z" fill="#29AAE2"/>
<path d="M30.3065 17.394C30.2153 17.3472 30.1865 17.2825 30.1601 17.2145C29.9621 16.7074 29.7617 16.2002 29.5626 15.6919C29.385 15.2382 29.2074 14.7834 29.031 14.3287C29.0106 14.2752 28.9842 14.2216 28.9806 14.1659C28.9782 14.1291 29.001 14.0723 29.031 14.0567C29.1642 13.9876 29.3034 13.9274 29.4426 13.8705C30.6748 13.3622 31.8843 12.8138 33.0673 12.2152C34.1436 11.6702 35.1922 11.0838 36.1977 10.4306C36.2721 10.3816 36.3513 10.337 36.4317 10.2958C36.4545 10.2846 36.4905 10.2935 36.5325 10.2935C36.5684 10.366 36.614 10.4407 36.6452 10.5198C37.0016 11.4283 37.3567 12.3367 37.7119 13.2452C37.7227 13.2719 37.7335 13.2987 37.7407 13.3255C37.7563 13.3845 37.7467 13.4436 37.6975 13.4815C37.5919 13.5629 37.4815 13.6409 37.3699 13.7156C36.4221 14.3443 35.4346 14.915 34.4231 15.4511C33.1729 16.1144 31.8915 16.7207 30.586 17.2859C30.4912 17.3271 30.3917 17.3606 30.3077 17.3929L30.3065 17.394Z" fill="#FCFCFC"/>
<path d="M23.2539 12.7771C23.1579 12.7381 23.1255 12.6735 23.0991 12.6077C23.0139 12.3948 22.9311 12.1808 22.8483 11.9679C22.6348 11.4206 22.4188 10.8744 22.2064 10.3271C22.1704 10.2346 22.1428 10.1387 22.1188 10.0417C22.114 10.0206 22.1356 9.98043 22.156 9.97039C22.2508 9.92581 22.3468 9.88345 22.4464 9.85001C23.1507 9.6137 23.849 9.3629 24.5401 9.09426C25.8959 8.56813 27.2182 7.97847 28.4876 7.29072C28.5668 7.24836 28.6496 7.21046 28.7312 7.17256C28.7708 7.15361 28.8284 7.17256 28.85 7.206C28.8644 7.23052 28.886 7.25282 28.8955 7.27957C29.2051 8.06653 29.5147 8.85238 29.8242 9.63933C29.829 9.65271 29.8314 9.6672 29.835 9.68058C29.8518 9.73854 29.835 9.80319 29.7846 9.8344C29.6574 9.91354 29.5315 9.99269 29.4007 10.0651C28.1396 10.7663 26.8318 11.3849 25.4868 11.9344C24.8713 12.1864 24.245 12.4149 23.6234 12.6512C23.4975 12.6991 23.3667 12.7392 23.2527 12.7771H23.2539Z" fill="#29AAE2"/>
<path d="M41.0116 35.8731C40.9924 35.9076 40.9864 35.9422 40.9648 35.9555C40.8772 36.0113 40.7872 36.0659 40.6924 36.1116C39.9317 36.4805 39.1638 36.8317 38.3851 37.1661C37.1613 37.6911 35.9218 38.1782 34.662 38.623C34.5624 38.6586 34.4592 38.6854 34.356 38.7088C34.3344 38.7132 34.3008 38.6898 34.2792 38.672C34.2576 38.653 34.2384 38.6285 34.2288 38.6029C33.9241 37.8282 33.6205 37.0535 33.317 36.2788C33.3122 36.2654 33.311 36.2509 33.3062 36.2376C33.293 36.1941 33.335 36.1183 33.3866 36.0982C33.4573 36.0704 33.5281 36.0425 33.5989 36.018C35.7106 35.2912 37.7852 34.4853 39.8165 33.5824C39.8717 33.5579 39.9293 33.5378 39.9857 33.5177C40.0229 33.5044 40.0889 33.5267 40.1057 33.559C40.1321 33.6103 40.1597 33.6604 40.1813 33.7139C40.4404 34.3671 40.6984 35.0214 40.9552 35.6758C40.9816 35.7415 40.9948 35.8129 41.0116 35.8731Z" fill="#FCFCFC"/>
<path d="M18.1162 5.00112C18.115 5.07357 18.1018 5.13822 18.0298 5.18615C17.8558 5.30096 17.683 5.418 17.5139 5.5395C17.3927 5.62645 17.2859 5.73011 17.2079 5.85384C17.1779 5.90177 17.1575 5.95639 17.1407 6.01101C17.1083 6.12025 17.1719 6.25066 17.2775 6.30305C17.4143 6.37105 17.5583 6.41564 17.7142 6.42121C18.0202 6.43236 18.3238 6.43124 18.6285 6.38554C19.5224 6.25289 20.3863 6.01881 21.2298 5.71897C21.3438 5.67884 21.4553 5.63091 21.5693 5.59078C21.7445 5.52947 21.8177 5.55622 21.8837 5.72454C22.0733 6.20385 22.2568 6.68539 22.4428 7.16581C22.4608 7.21374 22.4272 7.29288 22.3828 7.31295C22.3 7.35085 22.2184 7.38763 22.1345 7.42107C20.727 7.9851 19.2716 8.40644 17.7646 8.67397C17.2535 8.76425 16.7352 8.80438 16.218 8.84674C15.8341 8.87795 15.4549 8.83002 15.077 8.77317C14.8802 8.74308 14.693 8.6762 14.5251 8.57476C14.3319 8.45772 14.2299 8.29386 14.2335 8.07539C14.2359 7.91599 14.2671 7.76551 14.3523 7.62617C14.4507 7.46455 14.5682 7.31629 14.7002 7.17807C14.945 6.9217 15.2222 6.69988 15.5125 6.49032C16.1916 6.00098 16.9319 5.60304 17.695 5.23966C17.8042 5.18838 17.9158 5.14156 18.0214 5.08694C18.0586 5.06799 18.0838 5.02898 18.1162 5V5.00112Z" fill="#29AAE2"/>
<path d="M38.5069 41.1143C38.4853 41.1545 38.4781 41.1901 38.4565 41.2013C38.3377 41.2648 38.2189 41.3284 38.0953 41.383C37.097 41.8144 36.082 42.2078 35.0525 42.5668C33.9654 42.9458 32.864 43.2868 31.7457 43.58C31.6594 43.6023 31.5682 43.6123 31.4782 43.6212C31.453 43.6235 31.4242 43.6001 31.4002 43.5845C31.3882 43.5778 31.3774 43.5644 31.3726 43.5521C31.1998 43.113 31.027 42.6727 30.8555 42.2324C30.8351 42.1789 30.8699 42.1175 30.931 42.0964C31.0018 42.0718 31.0738 42.0473 31.147 42.0273C32.6828 41.5948 34.2054 41.1277 35.7028 40.5916C36.3579 40.3564 37.0083 40.1089 37.661 39.867C37.7462 39.8358 37.8313 39.8068 37.9201 39.7845C37.9429 39.779 37.9825 39.7957 37.9993 39.8146C38.0281 39.8458 38.0509 39.8849 38.0665 39.9239C38.2045 40.2694 38.3425 40.6161 38.4769 40.9627C38.4973 41.0151 38.4997 41.072 38.5081 41.1143H38.5069Z" fill="#FCFCFC"/>
<path d="M19.3635 43.6089C19.4199 43.5621 19.4799 43.581 19.5327 43.5899C20.153 43.6958 20.7805 43.6891 21.4068 43.6903C21.5748 43.6903 21.7428 43.6802 21.9108 43.6769C22.5695 43.6635 23.221 43.5922 23.8737 43.5164C25.4983 43.3269 27.0977 43.0203 28.6863 42.6581C28.7751 42.638 28.8663 42.6269 28.9574 42.6135C29.0102 42.6057 29.0798 42.648 29.1026 42.696C29.1086 42.7093 29.1146 42.7216 29.1194 42.735C29.267 43.1084 29.4158 43.4807 29.561 43.8541C29.5766 43.8931 29.5802 43.9366 29.5898 43.979C29.6006 44.0247 29.5502 44.0927 29.495 44.1083C29.4662 44.1161 29.4362 44.125 29.4074 44.1317C28.6743 44.2732 27.94 44.4036 27.1973 44.4984C26.4846 44.5898 25.7707 44.6533 25.052 44.6779C24.4544 44.6979 23.8593 44.6834 23.2642 44.6455C22.8982 44.6221 22.5347 44.5708 22.1807 44.4761C21.5796 44.3145 20.9761 44.1551 20.3786 43.9834C20.0726 43.8954 19.7751 43.7828 19.4751 43.678C19.4343 43.6635 19.4019 43.6334 19.3623 43.6078L19.3635 43.6089Z" fill="#FCFCFC"/>
<path d="M39.8653 41.667C39.8437 41.7015 39.8305 41.7472 39.7981 41.7695C39.6745 41.852 39.5461 41.9312 39.4165 42.0047C37.6467 43.0169 35.7594 43.7804 33.7617 44.3088C32.8042 44.5618 31.8311 44.7468 30.8484 44.8895C30.5917 44.9263 30.3325 44.9542 30.0745 44.9809C29.9534 44.9932 29.831 44.9932 29.7002 44.9999C29.7002 44.9386 29.7458 44.9464 29.7758 44.9408C32.815 44.4158 35.727 43.5263 38.5178 42.2934C38.8766 42.1352 39.2257 41.9557 39.5809 41.7907C39.6757 41.7461 39.7765 41.7138 39.8761 41.677L39.8653 41.6681V41.667Z" fill="#FCFCFC"/>
<path d="M76.0439 29.3281C76.0439 31.1647 75.0833 32.5273 73.1621 33.416C71.901 33.8646 70.5215 34.0889 69.0234 34.0889C66.7129 34.0889 64.8636 33.3779 63.4756 31.9561C62.096 30.5342 61.3555 28.5579 61.2539 26.0273V24.4912C61.2539 22.7477 61.5586 21.2243 62.168 19.9209C62.7858 18.6175 63.666 17.6146 64.8086 16.9121C65.9512 16.2096 67.2757 15.8584 68.7822 15.8584C70.9743 15.8584 72.6797 16.3662 73.8984 17.3818C74.7786 18.2367 75.0241 19.2057 74.6348 20.2891C74.2454 21.3639 73.4583 21.9014 72.2734 21.9014H72.0449C72.0111 21.9014 71.9814 21.8929 71.9561 21.876C71.9307 21.8506 71.918 21.8167 71.918 21.7744C71.7572 20.8519 71.4482 20.1875 70.9912 19.7812C70.6442 19.485 70.2041 19.2946 69.6709 19.21C68.3421 19.0153 67.2799 19.43 66.4844 20.4541C65.8835 21.3682 65.5788 22.6885 65.5703 24.415V25.4814C65.5703 27.2503 65.8708 28.5791 66.4717 29.4678C67.0726 30.3564 68.0205 30.8008 69.3154 30.8008C70.4242 30.8008 71.2493 30.5553 71.791 30.0645V27.3096H68.8203V24.377H72.8701C73.7503 24.377 74.4993 24.6859 75.1172 25.3037C75.735 25.9215 76.0439 26.6706 76.0439 27.5508V29.3281ZM77.0723 33.9492C76.9368 33.9492 76.8184 33.8984 76.7168 33.7969C76.6152 33.6953 76.5645 33.5726 76.5645 33.4287V19.4004C76.5645 18.3763 76.9157 17.5003 77.6182 16.7725C78.3206 16.0446 79.167 15.6807 80.1572 15.6807C80.335 15.6807 80.4873 15.7484 80.6143 15.8838C80.7497 16.0192 80.8174 16.18 80.8174 16.3662V30.0771C80.8174 31.152 80.4492 32.0661 79.7129 32.8193C78.985 33.5726 78.1048 33.9492 77.0723 33.9492ZM91.5449 30.6484H85.7178C84.7868 32.9167 83.2972 34.0508 81.249 34.0508H80.1445L85.248 19.7305C86.4329 17.1491 88.2272 15.8584 90.6309 15.8584L95.5693 29.6328C95.9163 30.7585 95.7809 31.7783 95.1631 32.6924C94.5452 33.598 93.682 34.0508 92.5732 34.0508L91.5449 30.6484ZM86.7334 27.0049H90.5293L88.625 20.6953L86.7334 27.0049ZM117.799 19.3242H113.013C112.945 19.3242 112.886 19.3496 112.835 19.4004C112.784 19.4512 112.759 19.5146 112.759 19.5908V29.9502C112.759 31.0843 112.369 32.0534 111.591 32.8574C110.812 33.653 109.868 34.0508 108.76 34.0508C108.692 34.0508 108.633 34.0254 108.582 33.9746C108.531 33.9238 108.506 33.8604 108.506 33.7842V19.5908C108.506 19.5146 108.48 19.4512 108.43 19.4004C108.379 19.3496 108.315 19.3242 108.239 19.3242H106.322C105.493 19.3242 104.782 19.0238 104.189 18.4229C103.597 17.8135 103.301 17.0771 103.301 16.2139C103.301 16.1462 103.326 16.0869 103.377 16.0361C103.428 15.9769 103.487 15.9473 103.555 15.9473H115.031C115.869 15.9473 116.58 16.252 117.164 16.8613C117.757 17.4707 118.053 18.2028 118.053 19.0576C118.053 19.1338 118.027 19.1973 117.977 19.248C117.926 19.2988 117.867 19.3242 117.799 19.3242ZM124.819 27.665H122.509V33.835C122.509 33.9196 122.479 33.9915 122.42 34.0508C122.369 34.11 122.306 34.1396 122.229 34.1396C121.129 34.1396 120.19 33.7376 119.411 32.9336C118.641 32.1296 118.256 31.1562 118.256 30.0137V15.833H125.2C127.299 15.833 128.937 16.3154 130.113 17.2803C131.298 18.2451 131.891 19.6035 131.891 21.3555C131.891 22.6335 131.641 23.6914 131.142 24.5293C130.642 25.3587 129.864 26.0358 128.806 26.5605L132.487 33.9492V34.1396H129.136C128.399 34.1396 127.82 33.763 127.396 33.0098L124.819 27.665ZM122.509 24.2627H125.2C126.013 24.2627 126.622 24.0426 127.028 23.6025C127.435 23.1624 127.638 22.5488 127.638 21.7617C127.638 20.9746 127.435 20.3568 127.028 19.9082C126.614 19.4512 126.004 19.2227 125.2 19.2227H122.509V24.2627ZM133.084 33.9492C132.949 33.9492 132.83 33.8984 132.729 33.7969C132.627 33.6953 132.576 33.5726 132.576 33.4287V19.4004C132.576 18.3763 132.927 17.5003 133.63 16.7725C134.332 16.0446 135.179 15.6807 136.169 15.6807C136.347 15.6807 136.499 15.7484 136.626 15.8838C136.761 16.0192 136.829 16.18 136.829 16.3662V30.0771C136.829 31.152 136.461 32.0661 135.725 32.8193C134.997 33.5726 134.117 33.9492 133.084 33.9492ZM151.81 33.9492C149.981 33.9492 148.509 33.069 147.392 31.3086L144.205 25.5449C144.044 25.291 143.837 25.1471 143.583 25.1133C143.338 25.0794 143.109 25.1429 142.897 25.3037C142.694 25.4561 142.593 25.6846 142.593 25.9893V30.3438C142.593 31.334 142.25 32.1846 141.564 32.8955C140.879 33.598 140.054 33.9492 139.089 33.9492C138.877 33.9492 138.7 33.8773 138.556 33.7334C138.412 33.5811 138.34 33.3949 138.34 33.1748V16.7471C138.34 16.4847 138.429 16.2562 138.606 16.0615C138.793 15.8669 139.017 15.7695 139.279 15.7695H139.66C141.471 15.7695 142.931 16.6455 144.04 18.3975L148.077 25.71C148.153 25.8285 148.251 25.8962 148.369 25.9131C148.488 25.93 148.593 25.9004 148.687 25.8242C148.788 25.748 148.839 25.638 148.839 25.4941V19.667C148.839 18.5921 149.207 17.6738 149.943 16.9121C150.68 16.1504 151.573 15.7695 152.622 15.7695C152.749 15.7695 152.855 15.8161 152.939 15.9092C153.033 16.0023 153.079 16.1165 153.079 16.252V32.6416C153.079 32.9971 152.952 33.306 152.698 33.5684C152.453 33.8223 152.157 33.9492 151.81 33.9492ZM164.759 33.9492V27.957C164.759 27.5254 164.611 27.1572 164.314 26.8525C164.018 26.5479 163.663 26.3955 163.248 26.3955H158.487V29.5947C158.487 30.7965 158.073 31.8249 157.243 32.6797C156.414 33.526 155.411 33.9492 154.234 33.9492V20.2256C154.234 19.0238 154.649 17.9954 155.479 17.1406C156.308 16.2858 157.311 15.8584 158.487 15.8584V23.0439H164.759V20.2002C164.759 19.0068 165.169 17.987 165.99 17.1406C166.82 16.2858 167.818 15.8584 168.986 15.8584V29.6201C168.986 30.8135 168.572 31.8333 167.742 32.6797C166.921 33.526 165.927 33.9492 164.759 33.9492Z" fill="#FF2441"/>
</svg>
