<svg width="172" height="50" viewBox="0 0 172 50" fill="none" xmlns="http://www.w3.org/2000/svg">
<rect width="50" height="50" rx="24" fill="white"/>
<path d="M28 0H22C9.84974 0 0 9.84974 0 22V28C0 40.1503 9.84974 50 22 50H28C40.1503 50 50 40.1503 50 28V22C50 9.84974 40.1503 0 28 0Z" fill="#2A3990"/>
<path d="M10.1795 18.3713C10.1871 18.3945 10.1929 18.4052 10.1929 18.4159C10.2034 18.8342 10.4444 19.116 10.8158 19.3193C11.1153 19.4833 11.4436 19.5761 11.7815 19.6323C12.5446 19.7589 13.3134 19.7937 14.0871 19.7393C14.16 19.7339 14.234 19.7259 14.3069 19.7232C15.0047 19.6956 15.6968 19.6118 16.3879 19.5181C17.5033 19.3674 18.6062 19.1614 19.7014 18.9144C21.0577 18.6077 22.3938 18.2367 23.7194 17.8301C24.6495 17.5447 25.5701 17.2344 26.4819 16.9035C26.5616 16.875 26.6432 16.8491 26.7238 16.8251C26.769 16.8117 26.8208 16.8376 26.8438 16.8804C26.8544 16.9009 26.8688 16.9196 26.8774 16.941C27.1913 17.7427 27.5042 18.5443 27.8171 19.346C27.8258 19.3674 27.8306 19.3897 27.8373 19.4111C27.8478 19.4468 27.8171 19.5074 27.7759 19.5244C27.6866 19.5618 27.5964 19.5975 27.5061 19.6323C26.7277 19.9372 25.9406 20.2199 25.1458 20.4866C23.5102 21.035 21.8515 21.5156 20.1631 21.9017C19.2714 22.106 18.3749 22.287 17.4687 22.4243C16.9254 22.5063 16.3802 22.5786 15.8331 22.6356C14.9433 22.7284 14.0516 22.7756 13.156 22.7444C12.5071 22.7213 11.8621 22.6526 11.2353 22.4814C10.9761 22.4109 10.7256 22.32 10.4885 22.1987C10.2726 22.0881 10.0748 21.9544 9.90973 21.7831C9.65728 21.5201 9.5085 21.216 9.48066 20.862C9.45475 20.5294 9.49314 20.203 9.57569 19.8802C9.70335 19.3808 9.88573 18.8993 10.1046 18.4284C10.1161 18.4043 10.1516 18.391 10.1804 18.3696L10.1795 18.3713Z" fill="#FCFCFC"/>
<path d="M9 24.5002C9.05279 24.5617 9.07967 24.5849 9.09695 24.6135C9.28412 24.9247 9.57304 25.1298 9.90708 25.2858C10.2037 25.4241 10.5185 25.5186 10.843 25.5828C11.2144 25.6568 11.5888 25.7076 11.9689 25.7326C12.3605 25.7585 12.7512 25.7861 13.1438 25.7763C13.7437 25.7611 14.3436 25.7326 14.9407 25.6729C15.1845 25.6488 15.4273 25.6229 15.6711 25.5979C16.4755 25.5168 17.2712 25.3902 18.066 25.2528C18.9568 25.0986 19.8427 24.9229 20.7229 24.7231C21.8652 24.4637 22.994 24.1605 24.118 23.8403C24.4578 23.744 24.7947 23.6415 25.1336 23.5434C25.1998 23.5238 25.2583 23.5487 25.2862 23.604C25.3063 23.645 25.3294 23.6861 25.3457 23.7289C25.6903 24.6045 26.0339 25.4811 26.3766 26.3577C26.3977 26.4112 26.416 26.4656 26.4294 26.5209C26.438 26.5575 26.4131 26.5887 26.3795 26.6029C26.2902 26.6395 26.2 26.6743 26.1069 26.7028C25.1182 27.0033 24.1228 27.286 23.1188 27.541C22.0437 27.8148 20.962 28.0583 19.8706 28.266C19.2591 28.382 18.6458 28.4907 18.0267 28.571C17.5659 28.6307 17.1061 28.6941 16.6444 28.7502C16.4016 28.7797 16.1578 28.8046 15.913 28.8171C15.1912 28.8537 14.4703 28.9179 13.7466 28.8858C13.1102 28.8581 12.4747 28.8225 11.8489 28.6994C11.3315 28.5986 10.8286 28.4613 10.3592 28.2286C10.1749 28.1367 10.0002 28.0333 9.84085 27.9067C9.45978 27.6035 9.24765 27.2191 9.19677 26.7563C9.15838 26.4059 9.11614 26.0545 9.07679 25.7041C9.06911 25.6363 9.06623 25.5676 9.06047 25.4999C9.04127 25.2618 9.02016 25.0237 9.00288 24.7847C8.99712 24.7053 9.00288 24.6259 9.00288 24.5002H9Z" fill="#29AAE2"/>
<path d="M10.4258 30.8448C10.4594 30.8573 10.4872 30.86 10.5026 30.8734C10.8049 31.1516 11.1716 31.3291 11.5671 31.461C11.9606 31.5921 12.3686 31.667 12.7804 31.7259C13.2785 31.7972 13.7805 31.8115 14.2826 31.8115C14.8825 31.8115 15.4814 31.7972 16.0814 31.75C17.1804 31.6635 18.2699 31.519 19.3555 31.3406C20.3922 31.1703 21.4211 30.9643 22.4463 30.7414C22.4933 30.7307 22.5423 30.7164 22.5903 30.7173C22.6229 30.7182 22.6661 30.7361 22.6834 30.7601C22.717 30.8065 22.739 30.8618 22.7592 30.9144C23.0683 31.7054 23.3774 32.4963 23.6855 33.2873C23.7018 33.3301 23.7152 33.3738 23.7277 33.4175C23.7392 33.4576 23.7066 33.521 23.6682 33.5299C23.5377 33.5611 23.4071 33.5914 23.2766 33.619C22.453 33.7938 21.6237 33.941 20.7915 34.0729C20.3816 34.138 19.9679 34.1862 19.5561 34.2388C19.2528 34.2771 18.9495 34.3155 18.6452 34.3458C18.3284 34.377 18.0117 34.4073 17.6939 34.4234C16.8253 34.4653 15.9547 34.4867 15.086 34.4296C14.4505 34.3877 13.8228 34.2932 13.2123 34.1131C12.4981 33.9017 11.927 33.5138 11.4759 32.9645C11.2292 32.664 11.0286 32.3394 10.8606 31.997C10.6926 31.6554 10.5496 31.305 10.4383 30.9429C10.4296 30.9135 10.4325 30.8814 10.4287 30.8448H10.4258Z" fill="#FCFCFC"/>
<path d="M14.459 36.3274C14.5041 36.3051 14.5521 36.2998 14.6001 36.3158C14.6807 36.3426 14.7604 36.3729 14.84 36.4014C15.3113 36.5718 15.8028 36.6609 16.3029 36.7189C16.9249 36.7911 17.5498 36.7983 18.1746 36.7804C18.6767 36.7662 19.1777 36.7296 19.6768 36.6761C19.9082 36.6511 20.1385 36.6244 20.3699 36.6003C21.1608 36.5156 21.945 36.3863 22.7264 36.2472C23.5922 36.0929 24.4541 35.9208 25.3084 35.7202C26.8164 35.3652 28.3061 34.9506 29.7824 34.4958C29.8985 34.4601 30.0156 34.4271 30.1327 34.3959C30.1961 34.379 30.2566 34.4093 30.2825 34.4646C30.3074 34.5163 30.3324 34.5689 30.3535 34.6215C30.5637 35.1557 30.7739 35.6898 30.9832 36.2249C31.0043 36.2784 31.0187 36.3337 31.0341 36.389C31.0456 36.43 31.0149 36.4764 30.9659 36.4951C30.9208 36.5129 30.8767 36.5325 30.8296 36.5468C29.4013 36.9927 27.9586 37.3922 26.4939 37.7221C25.7442 37.8907 24.9907 38.0431 24.2314 38.1716C23.6776 38.2652 23.1218 38.3535 22.5613 38.4096C22.233 38.4426 21.9057 38.4953 21.5764 38.5149C20.941 38.5523 20.3046 38.6147 19.6672 38.5871C19.0558 38.5612 18.4434 38.5345 17.8435 38.4034C17.6045 38.3517 17.3693 38.2928 17.1389 38.2126C16.85 38.1109 16.586 37.9727 16.3365 37.8033C15.9113 37.5126 15.5119 37.1933 15.1194 36.8669C14.9005 36.685 14.6826 36.5013 14.4638 36.3185L14.458 36.3274H14.459Z" fill="#29AAE2"/>
<path d="M13.625 13.1689C13.6001 13.2332 13.5693 13.2956 13.5501 13.3607C13.4801 13.5925 13.5597 13.7851 13.7402 13.9483C13.8477 14.0455 13.9792 14.1071 14.1165 14.157C14.3104 14.2283 14.5139 14.2765 14.7202 14.2997C15.2069 14.3541 15.6935 14.3888 16.185 14.3371C16.5008 14.3041 16.8185 14.2943 17.1353 14.2578C17.6824 14.1936 18.2228 14.1035 18.7623 14.0009C19.4937 13.8618 20.2155 13.6888 20.9316 13.4935C21.0016 13.4739 21.0717 13.4534 21.1428 13.4356C21.2426 13.4106 21.2963 13.4391 21.3414 13.5363C21.351 13.5569 21.3616 13.5774 21.3702 13.5988C21.6169 14.2283 21.8646 14.8579 22.1103 15.4884C22.1266 15.5312 22.1439 15.5766 22.1439 15.6203C22.1439 15.6489 22.1218 15.6926 22.0959 15.7042C22.0191 15.738 21.9366 15.7621 21.855 15.7862C20.6427 16.1465 19.4111 16.4398 18.1595 16.6565C17.5586 16.7609 16.9529 16.8376 16.3443 16.8973C15.7089 16.9588 15.0744 16.9633 14.438 16.9535C14.0445 16.9472 13.6586 16.8928 13.2756 16.8117C13.0481 16.7635 12.8283 16.6931 12.621 16.595C12.4674 16.5228 12.3244 16.4345 12.2054 16.3177C12.022 16.1375 11.9212 15.9262 11.9145 15.6738C11.9078 15.4277 11.975 15.2012 12.0863 14.9827C12.2015 14.7562 12.3407 14.5413 12.5068 14.3434C12.8158 13.976 13.1316 13.6139 13.4465 13.251C13.4695 13.2251 13.4954 13.1966 13.5271 13.1832C13.5569 13.1707 13.5962 13.1779 13.6308 13.177L13.6269 13.1698L13.625 13.1689Z" fill="#FCFCFC"/>
<path d="M33.737 30.4749C33.6939 30.3893 33.6574 30.3304 33.6324 30.268C33.3176 29.4672 33.0037 28.6656 32.6917 27.8639C32.6706 27.8104 32.6581 27.7551 32.6447 27.6998C32.6361 27.6624 32.6543 27.6294 32.6879 27.6133C32.7743 27.5714 32.8626 27.5322 32.9519 27.4965C33.8311 27.1514 34.7027 26.7885 35.5637 26.4059C36.9785 25.7772 38.3627 25.0968 39.6998 24.3335C40.0041 24.1596 40.0108 24.1605 40.1279 24.461C40.3957 25.145 40.6645 25.8281 40.9323 26.512C40.9572 26.5762 40.9841 26.6404 40.9985 26.7064C41.0043 26.735 40.9927 26.7804 40.9707 26.7992C40.8891 26.8669 40.8017 26.9302 40.7115 26.9891C39.9916 27.4626 39.2448 27.8978 38.4807 28.3071C37.0361 29.0802 35.5407 29.7571 34.0125 30.3741C33.9348 30.4054 33.8551 30.433 33.738 30.4767L33.737 30.4749Z" fill="#FCFCFC"/>
<path d="M25.2508 33.1697C25.2144 33.1527 25.1827 33.1483 25.1731 33.1322C25.1424 33.0832 25.1165 33.0315 25.0963 32.978C24.7815 32.1772 24.4666 31.3755 24.1537 30.5738C24.1374 30.531 24.1259 30.4864 24.1134 30.4427C24.0971 30.3848 24.1316 30.3295 24.1969 30.3117C24.6202 30.1975 25.0435 30.0843 25.4668 29.9692C27.2887 29.4725 29.0846 28.9045 30.8565 28.2731C30.9592 28.2366 31.0638 28.2063 31.1685 28.175C31.2088 28.1626 31.2788 28.192 31.2952 28.225C31.3201 28.2767 31.347 28.3284 31.3672 28.3819C31.6772 29.1729 31.9863 29.9639 32.2944 30.7557C32.3155 30.8092 32.3299 30.8645 32.3443 30.9189C32.3549 30.9573 32.3232 31.0135 32.281 31.0313C32.2147 31.0598 32.1485 31.0893 32.0794 31.1133C31.3796 31.355 30.6828 31.6047 29.9782 31.8356C28.523 32.3136 27.0487 32.7336 25.558 33.1028C25.4524 33.1287 25.3449 33.1492 25.2508 33.1697Z" fill="#29AAE2"/>
<path d="M26.6543 23.1082C26.732 23.0315 26.829 23.0128 26.9202 22.9825C27.8071 22.6864 28.6873 22.377 29.5608 22.0488C30.4909 21.6992 31.4114 21.3283 32.3224 20.9368C32.3665 20.9181 32.4107 20.8976 32.4548 20.8788C32.7361 20.7593 32.7466 20.7504 32.8628 21.0474C33.1248 21.7206 33.3907 22.393 33.6547 23.0654C33.718 23.2259 33.7804 23.3855 33.8418 23.546C33.8543 23.5781 33.8639 23.6111 33.8735 23.6432C33.8841 23.6807 33.8591 23.7449 33.8226 23.7627C33.7142 23.8153 33.6057 23.868 33.4963 23.9179C31.9998 24.5974 30.4727 25.2082 28.9177 25.762C28.6211 25.8681 28.3226 25.9716 28.025 26.0741C27.9799 26.0893 27.93 26.0955 27.882 26.0982C27.8609 26.0991 27.8282 26.0875 27.8196 26.0723C27.7831 26.0135 27.7495 25.9537 27.7246 25.8904C27.5047 25.3358 27.2878 24.7802 27.0699 24.2255C26.9528 23.9268 26.8319 23.629 26.7176 23.3293C26.6898 23.2562 26.6533 23.1822 26.6553 23.1064L26.6543 23.1082Z" fill="#FCFCFC"/>
<path d="M40.6367 19.5563C40.5762 19.674 40.4745 19.7409 40.3852 19.8185C39.9466 20.1993 39.481 20.5515 39.0011 20.8859C37.8627 21.6796 36.6513 22.3671 35.4073 23.0065C35.3651 23.0288 35.319 23.0448 35.2739 23.0627C35.2461 23.0742 35.1933 23.0537 35.1808 23.0261C35.152 22.9637 35.1213 22.9012 35.0963 22.8379C34.7777 22.0265 34.459 21.215 34.1413 20.4026C34.1201 20.3491 34.1019 20.2947 34.0837 20.2403C34.0683 20.1948 34.0856 20.144 34.1269 20.1217C34.2123 20.0762 34.2977 20.0325 34.3841 19.9888C34.8679 19.7436 35.3545 19.5037 35.8335 19.2523C36.6974 18.7984 37.5382 18.3106 38.3426 17.7702C38.6795 17.5437 39.0049 17.3011 39.3361 17.0666C39.4042 17.0184 39.4724 16.9703 39.5434 16.9266C39.5559 16.9195 39.5943 16.9302 39.6049 16.9435C39.6337 16.9801 39.6596 17.0193 39.6759 17.0621C39.9859 17.8522 40.294 18.6432 40.6022 19.4342C40.6185 19.4761 40.6271 19.5207 40.6377 19.5546L40.6367 19.5563Z" fill="#29AAE2"/>
<path d="M29.2454 18.9153C29.1724 18.8778 29.1494 18.8261 29.1283 18.7717C28.9699 18.3659 28.8096 17.9602 28.6502 17.5536C28.5082 17.1906 28.3661 16.8268 28.225 16.463C28.2087 16.4202 28.1876 16.3774 28.1847 16.3328C28.1828 16.3034 28.201 16.2579 28.225 16.2454C28.3316 16.1901 28.4429 16.1419 28.5543 16.0965C29.5401 15.6898 30.5076 15.2511 31.454 14.7722C32.3151 14.3362 33.154 13.8671 33.9584 13.3446C34.0179 13.3053 34.0812 13.2697 34.1455 13.2367C34.1638 13.2277 34.1926 13.2349 34.2262 13.2349C34.255 13.2928 34.2914 13.3526 34.3164 13.4159C34.6015 14.1427 34.8856 14.8694 35.1697 15.5962C35.1784 15.6176 35.187 15.639 35.1928 15.6604C35.2052 15.7077 35.1976 15.7549 35.1582 15.7853C35.0737 15.8504 34.9854 15.9128 34.8961 15.9725C34.1378 16.4755 33.3479 16.932 32.5387 17.361C31.5385 17.8915 30.5134 18.3766 29.469 18.8288C29.3932 18.8618 29.3135 18.8885 29.2463 18.9144L29.2454 18.9153Z" fill="#FCFCFC"/>
<path d="M23.6029 15.2217C23.5261 15.1905 23.5002 15.1388 23.4791 15.0862C23.4109 14.9159 23.3447 14.7447 23.2785 14.5743C23.1076 14.1365 22.9348 13.6995 22.7649 13.2617C22.7362 13.1877 22.7141 13.111 22.6949 13.0334C22.691 13.0165 22.7083 12.9844 22.7246 12.9763C22.8005 12.9407 22.8773 12.9068 22.9569 12.88C23.5204 12.691 24.079 12.4903 24.6319 12.2754C25.7166 11.8545 26.7743 11.3828 27.7899 10.8326C27.8532 10.7987 27.9195 10.7684 27.9847 10.7381C28.0164 10.7229 28.0625 10.7381 28.0798 10.7648C28.0913 10.7844 28.1086 10.8023 28.1162 10.8237C28.3639 11.4532 28.6115 12.0819 28.8592 12.7115C28.863 12.7222 28.8649 12.7338 28.8678 12.7445C28.8813 12.7909 28.8678 12.8426 28.8275 12.8675C28.7258 12.9309 28.625 12.9942 28.5204 13.0521C27.5115 13.613 26.4653 14.108 25.3892 14.5476C24.8968 14.7491 24.3958 14.9319 23.8986 15.121C23.7978 15.1593 23.6931 15.1914 23.602 15.2217H23.6029Z" fill="#29AAE2"/>
<path d="M37.8088 33.6984C37.7935 33.7261 37.7887 33.7537 37.7714 33.7644C37.7013 33.809 37.6294 33.8527 37.5535 33.8893C36.945 34.1844 36.3306 34.4653 35.7077 34.7329C34.7286 35.1529 33.7371 35.5426 32.7292 35.8984C32.6495 35.9269 32.567 35.9483 32.4844 35.967C32.4672 35.9706 32.4403 35.9519 32.423 35.9376C32.4057 35.9224 32.3904 35.9028 32.3827 35.8823C32.1389 35.2626 31.896 34.6428 31.6532 34.023C31.6493 34.0123 31.6484 34.0007 31.6445 33.99C31.634 33.9553 31.6676 33.8946 31.7089 33.8786C31.7655 33.8563 31.8221 33.834 31.8787 33.8144C33.5681 33.233 35.2277 32.5882 36.8528 31.8659C36.897 31.8463 36.943 31.8302 36.9882 31.8142C37.0179 31.8035 37.0707 31.8213 37.0841 31.8472C37.1053 31.8882 37.1273 31.9283 37.1446 31.9711C37.352 32.4937 37.5583 33.0172 37.7637 33.5406C37.7849 33.5932 37.7954 33.6503 37.8088 33.6984Z" fill="#FCFCFC"/>
<path d="M19.4929 9.00089C19.492 9.05886 19.4814 9.11058 19.4238 9.14892C19.2847 9.24077 19.1464 9.3344 19.0111 9.4316C18.9141 9.50116 18.8287 9.58409 18.7663 9.68307C18.7423 9.72142 18.726 9.76511 18.7126 9.80881C18.6866 9.8962 18.7375 10.0005 18.822 10.0424C18.9314 10.0968 19.0466 10.1325 19.1714 10.137C19.4162 10.1459 19.659 10.145 19.9028 10.1084C20.6179 10.0023 21.309 9.81505 21.9838 9.57517C22.075 9.54307 22.1643 9.50472 22.2555 9.47262C22.3956 9.42358 22.4542 9.44498 22.5069 9.57963C22.6586 9.96308 22.8055 10.3483 22.9543 10.7326C22.9686 10.771 22.9418 10.8343 22.9063 10.8504C22.84 10.8807 22.7748 10.9101 22.7076 10.9369C21.5816 11.3881 20.4173 11.7252 19.2117 11.9392C18.8028 12.0114 18.3881 12.0435 17.9744 12.0774C17.6673 12.1024 17.3639 12.064 17.0616 12.0185C16.9042 11.9945 16.7544 11.941 16.62 11.8598C16.4655 11.7662 16.3839 11.6351 16.3868 11.4603C16.3887 11.3328 16.4137 11.2124 16.4818 11.1009C16.5605 10.9716 16.6546 10.853 16.7602 10.7425C16.956 10.5374 17.1777 10.3599 17.41 10.1923C17.9533 9.80078 18.5455 9.48243 19.156 9.19172C19.2434 9.1507 19.3326 9.11325 19.4171 9.06956C19.4469 9.0544 19.467 9.02319 19.4929 9V9.00089Z" fill="#29AAE2"/>
<path d="M35.8055 37.8915C35.7882 37.9236 35.7824 37.9521 35.7652 37.9611C35.6701 38.0119 35.5751 38.0627 35.4762 38.1064C34.6776 38.4515 33.8656 38.7663 33.042 39.0534C32.1724 39.3566 31.2912 39.6295 30.3966 39.864C30.3275 39.8819 30.2545 39.8899 30.1825 39.897C30.1624 39.8988 30.1393 39.8801 30.1201 39.8676C30.1105 39.8622 30.1019 39.8515 30.0981 39.8417C29.9599 39.4904 29.8216 39.1382 29.6844 38.7859C29.668 38.7431 29.6959 38.6941 29.7448 38.6771C29.8015 38.6575 29.8591 38.6379 29.9176 38.6218C31.1463 38.2758 32.3643 37.9022 33.5623 37.4733C34.0863 37.2851 34.6066 37.0872 35.1288 36.8936C35.1969 36.8687 35.2651 36.8455 35.3361 36.8277C35.3543 36.8232 35.386 36.8366 35.3995 36.8517C35.4225 36.8767 35.4407 36.9079 35.4532 36.9391C35.5636 37.2156 35.674 37.4929 35.7815 37.7702C35.7978 37.8121 35.7997 37.8576 35.8064 37.8915H35.8055Z" fill="#FCFCFC"/>
<path d="M20.4912 39.8872C20.5363 39.8497 20.5843 39.8649 20.6265 39.872C21.1228 39.9567 21.6248 39.9514 22.1259 39.9523C22.2602 39.9523 22.3946 39.9442 22.529 39.9416C23.056 39.9309 23.5772 39.8738 24.0994 39.8131C25.399 39.6615 26.6785 39.4163 27.9494 39.1265C28.0204 39.1105 28.0934 39.1015 28.1663 39.0908C28.2086 39.0846 28.2643 39.1185 28.2825 39.1568C28.2873 39.1675 28.2921 39.1773 28.2959 39.188C28.414 39.4868 28.533 39.7846 28.6492 40.0833C28.6616 40.1146 28.6645 40.1493 28.6722 40.1832C28.6808 40.2198 28.6405 40.2742 28.5964 40.2867C28.5733 40.2929 28.5493 40.3 28.5263 40.3054C27.9398 40.4186 27.3524 40.523 26.7582 40.5988C26.188 40.6719 25.6169 40.7227 25.042 40.7423C24.5639 40.7584 24.0878 40.7468 23.6117 40.7165C23.319 40.6977 23.0281 40.6567 22.745 40.5809C22.2641 40.4516 21.7813 40.3241 21.3032 40.1868C21.0585 40.1163 20.8204 40.0263 20.5805 39.9424C20.5478 39.9309 20.5219 39.9068 20.4902 39.8863L20.4912 39.8872Z" fill="#FCFCFC"/>
<path d="M36.8918 38.3336C36.8745 38.3613 36.864 38.3978 36.8381 38.4157C36.7392 38.4816 36.6365 38.545 36.5328 38.6038C35.117 39.4135 33.6071 40.0244 32.0089 40.447C31.243 40.6495 30.4645 40.7975 29.6784 40.9116C29.473 40.9411 29.2656 40.9634 29.0592 40.9848C28.9623 40.9946 28.8644 40.9946 28.7598 40.9999C28.7598 40.9509 28.7962 40.9571 28.8202 40.9527C31.2516 40.5326 33.5812 39.821 35.8139 38.8348C36.1009 38.7081 36.3802 38.5646 36.6643 38.4326C36.7402 38.3969 36.8208 38.3711 36.9005 38.3416L36.8918 38.3345V38.3336Z" fill="#FCFCFC"/>
<path d="M76.0439 29.3281C76.0439 31.1647 75.0833 32.5273 73.1621 33.416C71.901 33.8646 70.5215 34.0889 69.0234 34.0889C66.7129 34.0889 64.8636 33.3779 63.4756 31.9561C62.096 30.5342 61.3555 28.5579 61.2539 26.0273V24.4912C61.2539 22.7477 61.5586 21.2243 62.168 19.9209C62.7858 18.6175 63.666 17.6146 64.8086 16.9121C65.9512 16.2096 67.2757 15.8584 68.7822 15.8584C70.9743 15.8584 72.6797 16.3662 73.8984 17.3818C74.7786 18.2367 75.0241 19.2057 74.6348 20.2891C74.2454 21.3639 73.4583 21.9014 72.2734 21.9014H72.0449C72.0111 21.9014 71.9814 21.8929 71.9561 21.876C71.9307 21.8506 71.918 21.8167 71.918 21.7744C71.7572 20.8519 71.4482 20.1875 70.9912 19.7812C70.6442 19.485 70.2041 19.2946 69.6709 19.21C68.3421 19.0153 67.2799 19.43 66.4844 20.4541C65.8835 21.3682 65.5788 22.6885 65.5703 24.415V25.4814C65.5703 27.2503 65.8708 28.5791 66.4717 29.4678C67.0726 30.3564 68.0205 30.8008 69.3154 30.8008C70.4242 30.8008 71.2493 30.5553 71.791 30.0645V27.3096H68.8203V24.377H72.8701C73.7503 24.377 74.4993 24.6859 75.1172 25.3037C75.735 25.9215 76.0439 26.6706 76.0439 27.5508V29.3281ZM77.0723 33.9492C76.9368 33.9492 76.8184 33.8984 76.7168 33.7969C76.6152 33.6953 76.5645 33.5726 76.5645 33.4287V19.4004C76.5645 18.3763 76.9157 17.5003 77.6182 16.7725C78.3206 16.0446 79.167 15.6807 80.1572 15.6807C80.335 15.6807 80.4873 15.7484 80.6143 15.8838C80.7497 16.0192 80.8174 16.18 80.8174 16.3662V30.0771C80.8174 31.152 80.4492 32.0661 79.7129 32.8193C78.985 33.5726 78.1048 33.9492 77.0723 33.9492ZM91.5449 30.6484H85.7178C84.7868 32.9167 83.2972 34.0508 81.249 34.0508H80.1445L85.248 19.7305C86.4329 17.1491 88.2272 15.8584 90.6309 15.8584L95.5693 29.6328C95.9163 30.7585 95.7809 31.7783 95.1631 32.6924C94.5452 33.598 93.682 34.0508 92.5732 34.0508L91.5449 30.6484ZM86.7334 27.0049H90.5293L88.625 20.6953L86.7334 27.0049ZM117.799 19.3242H113.013C112.945 19.3242 112.886 19.3496 112.835 19.4004C112.784 19.4512 112.759 19.5146 112.759 19.5908V29.9502C112.759 31.0843 112.369 32.0534 111.591 32.8574C110.812 33.653 109.868 34.0508 108.76 34.0508C108.692 34.0508 108.633 34.0254 108.582 33.9746C108.531 33.9238 108.506 33.8604 108.506 33.7842V19.5908C108.506 19.5146 108.48 19.4512 108.43 19.4004C108.379 19.3496 108.315 19.3242 108.239 19.3242H106.322C105.493 19.3242 104.782 19.0238 104.189 18.4229C103.597 17.8135 103.301 17.0771 103.301 16.2139C103.301 16.1462 103.326 16.0869 103.377 16.0361C103.428 15.9769 103.487 15.9473 103.555 15.9473H115.031C115.869 15.9473 116.58 16.252 117.164 16.8613C117.757 17.4707 118.053 18.2028 118.053 19.0576C118.053 19.1338 118.027 19.1973 117.977 19.248C117.926 19.2988 117.867 19.3242 117.799 19.3242ZM124.819 27.665H122.509V33.835C122.509 33.9196 122.479 33.9915 122.42 34.0508C122.369 34.11 122.306 34.1396 122.229 34.1396C121.129 34.1396 120.19 33.7376 119.411 32.9336C118.641 32.1296 118.256 31.1562 118.256 30.0137V15.833H125.2C127.299 15.833 128.937 16.3154 130.113 17.2803C131.298 18.2451 131.891 19.6035 131.891 21.3555C131.891 22.6335 131.641 23.6914 131.142 24.5293C130.642 25.3587 129.864 26.0358 128.806 26.5605L132.487 33.9492V34.1396H129.136C128.399 34.1396 127.82 33.763 127.396 33.0098L124.819 27.665ZM122.509 24.2627H125.2C126.013 24.2627 126.622 24.0426 127.028 23.6025C127.435 23.1624 127.638 22.5488 127.638 21.7617C127.638 20.9746 127.435 20.3568 127.028 19.9082C126.614 19.4512 126.004 19.2227 125.2 19.2227H122.509V24.2627ZM133.084 33.9492C132.949 33.9492 132.83 33.8984 132.729 33.7969C132.627 33.6953 132.576 33.5726 132.576 33.4287V19.4004C132.576 18.3763 132.927 17.5003 133.63 16.7725C134.332 16.0446 135.179 15.6807 136.169 15.6807C136.347 15.6807 136.499 15.7484 136.626 15.8838C136.761 16.0192 136.829 16.18 136.829 16.3662V30.0771C136.829 31.152 136.461 32.0661 135.725 32.8193C134.997 33.5726 134.117 33.9492 133.084 33.9492ZM151.81 33.9492C149.981 33.9492 148.509 33.069 147.392 31.3086L144.205 25.5449C144.044 25.291 143.837 25.1471 143.583 25.1133C143.338 25.0794 143.109 25.1429 142.897 25.3037C142.694 25.4561 142.593 25.6846 142.593 25.9893V30.3438C142.593 31.334 142.25 32.1846 141.564 32.8955C140.879 33.598 140.054 33.9492 139.089 33.9492C138.877 33.9492 138.7 33.8773 138.556 33.7334C138.412 33.5811 138.34 33.3949 138.34 33.1748V16.7471C138.34 16.4847 138.429 16.2562 138.606 16.0615C138.793 15.8669 139.017 15.7695 139.279 15.7695H139.66C141.471 15.7695 142.931 16.6455 144.04 18.3975L148.077 25.71C148.153 25.8285 148.251 25.8962 148.369 25.9131C148.488 25.93 148.593 25.9004 148.687 25.8242C148.788 25.748 148.839 25.638 148.839 25.4941V19.667C148.839 18.5921 149.207 17.6738 149.943 16.9121C150.68 16.1504 151.573 15.7695 152.622 15.7695C152.749 15.7695 152.855 15.8161 152.939 15.9092C153.033 16.0023 153.079 16.1165 153.079 16.252V32.6416C153.079 32.9971 152.952 33.306 152.698 33.5684C152.453 33.8223 152.157 33.9492 151.81 33.9492ZM164.759 33.9492V27.957C164.759 27.5254 164.611 27.1572 164.314 26.8525C164.018 26.5479 163.663 26.3955 163.248 26.3955H158.487V29.5947C158.487 30.7965 158.073 31.8249 157.243 32.6797C156.414 33.526 155.411 33.9492 154.234 33.9492V20.2256C154.234 19.0238 154.649 17.9954 155.479 17.1406C156.308 16.2858 157.311 15.8584 158.487 15.8584V23.0439H164.759V20.2002C164.759 19.0068 165.169 17.987 165.99 17.1406C166.82 16.2858 167.818 15.8584 168.986 15.8584V29.6201C168.986 30.8135 168.572 31.8333 167.742 32.6797C166.921 33.526 165.927 33.9492 164.759 33.9492Z" fill="#FF2441"/>
</svg>
